HIERARCHY
ROOT Hips
{
    OFFSET 0.000000 0.000000 0.000000
    CHANNELS 6 Xposition Yposition Zposition Zrotation Xrotation Yrotation
    JOINT Spine
    {
        OFFSET -0.000000 14.517291 0.000000
        CHANNELS 3 Zrotation Xrotation Yrotation
        JOINT Spine1
        {
            OFFSET -0.000000 37.558300 0.000000
            CHANNELS 3 Zrotation Xrotation Yrotation
            JOINT Neck
            {
                OFFSET -0.000000 37.404057 3.400369
                CHANNELS 3 Zrotation Xrotation Yrotation
                JOINT Head
                {
                    OFFSET -0.000000 24.785618 -3.540803
                    CHANNELS 3 Zrotation Xrotation Yrotation
                    End Site
                    {
                        OFFSET -0.000000 35.408028 0.000000
                    }
                }
            }
            JOINT LeftShoulder
            {
                OFFSET 6.992933 33.973492 -0.192664
                CHANNELS 3 Zrotation Xrotation Yrotation
                JOINT LeftArm
                {
                    OFFSET 21.527611 0.000000 0.000000
                    CHANNELS 3 Zrotation Xrotation Yrotation
                    JOINT LeftForeArm
                    {
                        OFFSET 56.353916 0.000000 0.000000
                        CHANNELS 3 Zrotation Xrotation Yrotation
                        JOINT LeftHand
                        {
                            OFFSET 47.774071 0.000000 0.000000
                            CHANNELS 3 Zrotation Xrotation Yrotation
                            End Site
                            {
                                OFFSET 26.556021 0.000000 0.000000
                            }
                        }
                    }
                }
            }
            JOINT RightShoulder
            {
                OFFSET -7.065357 33.973492 -0.192664
                CHANNELS 3 Zrotation Xrotation Yrotation
                JOINT RightArm
                {
                    OFFSET -21.527611 0.000000 0.000000
                    CHANNELS 3 Zrotation Xrotation Yrotation
                    JOINT RightForeArm
                    {
                        OFFSET -56.353916 0.000000 0.000000
                        CHANNELS 3 Zrotation Xrotation Yrotation
                        JOINT RightHand
                        {
                            OFFSET -47.774071 0.000000 0.000000
                            CHANNELS 3 Zrotation Xrotation Yrotation
                            End Site
                            {
                                OFFSET -26.556021 0.000000 0.000000
                            }
                        }
                    }
                }
            }
        }
    }
    JOINT LeftUpLeg
    {
        OFFSET 17.704014 0.000000 0.000000
        CHANNELS 3 Zrotation Xrotation Yrotation
        JOINT LeftLeg
        {
            OFFSET -0.000000 -81.181816 0.000000
            CHANNELS 3 Zrotation Xrotation Yrotation
            JOINT LeftFoot
            {
                OFFSET -0.000000 -62.821102 0.000000
                CHANNELS 3 Zrotation Xrotation Yrotation
                JOINT LeftToeBase
                {
                    OFFSET -0.000000 -11.507608 26.556021
                    CHANNELS 3 Zrotation Xrotation Yrotation
                    End Site
                    {
                        OFFSET -0.000000 0.000000 7.081605
                    }
                }
            }
        }
    }
    JOINT RightUpLeg
    {
        OFFSET -17.704014 0.000000 0.000000
        CHANNELS 3 Zrotation Xrotation Yrotation
        JOINT RightLeg
        {
            OFFSET -0.000000 -81.181816 0.000000
            CHANNELS 3 Zrotation Xrotation Yrotation
            JOINT RightFoot
            {
                OFFSET -0.000000 -62.821102 0.000000
                CHANNELS 3 Zrotation Xrotation Yrotation
                JOINT RightToeBase
                {
                    OFFSET -0.000000 -11.507608 26.556021
                    CHANNELS 3 Zrotation Xrotation Yrotation
                    End Site
                    {
                        OFFSET -0.000000 0.000000 7.081605
                    }
                }
            }
        }
    }
}
MOTION
Frames:    8
Frame Time:    0.008333
29.330683    143.259995    52.162128    5.130416    2.462961    -65.129852    -0.146663    3.760087    -3.018250    -0.560415    -1.406094    -1.015460    22.738167    11.673203    22.027676    -19.623491    1.387256    19.522808    13.679877    2.764681    -21.581272    -5.901803    -5.278269    -22.358154    4.958230    -16.581072    -126.430328    -14.476533    -2.423388    -34.641434    -5.739530    -2.708862    -7.507638    32.905754    -27.255266    46.653042    11.140596    -31.995781    110.352631    29.341419    -36.716370    38.314991    38.903568    -23.306414    34.118713    -37.594032    47.725086    11.446774    3.341802    -17.271517    44.299789    0.000000    0.000000    0.000000    -32.981110    -17.103632    -16.382429    3.476203    35.303043    -5.678745    20.810047    -9.513355    7.451276    0.000000    0.000000    0.000000    
29.323191    143.260849    52.162189    5.126851    2.461083    -65.118530    -0.152567    3.763008    -3.025086    -0.553850    -1.408086    -1.017692    22.711115    11.649291    22.023350    -19.559881    1.392689    19.523149    13.698545    2.780844    -21.582897    -5.941326    -5.229285    -22.283339    5.038301    -16.717100    -126.470261    -14.533195    -2.374254    -34.672409    -5.739224    -2.722605    -7.504831    32.877815    -27.235338    46.623966    11.123381    -32.021572    110.354126    29.352140    -36.718094    38.312561    38.898830    -23.305609    34.103764    -37.595081    47.711720    11.455198    3.360412    -17.250441    44.291885    0.000000    0.000000    0.000000    -32.984253    -17.089655    -16.390509    3.484398    35.301998    -5.686684    20.797646    -9.513952    7.454312    0.000000    0.000000    0.000000    
29.311657    143.260605    52.164024    5.112920    2.461026    -65.105858    -0.150813    3.770587    -3.032250    -0.538121    -1.401859    -1.019848    22.696447    11.651094    22.020683    -19.550333    1.371184    19.518892    13.689780    2.790224    -21.587212    -5.931193    -5.197943    -22.301266    5.038147    -16.711418    -126.450157    -14.457503    -2.396209    -34.684856    -5.753281    -2.713774    -7.514914    32.901711    -27.268936    46.633560    11.139562    -31.971357    110.368011    29.325272    -36.706482    38.291370    38.900524    -23.299641    34.093353    -37.598286    47.720955    11.443622    3.365835    -17.251095    44.292686    0.000000    0.000000    0.000000    -32.972515    -17.067074    -16.399343    3.464226    35.301823    -5.670776    20.803314    -9.517426    7.468311    0.000000    0.000000    0.000000    
29.301935    143.257492    52.166294    5.108928    2.463562    -65.094162    -0.154368    3.769017    -3.037524    -0.526931    -1.402959    -1.021520    22.705879    11.656847    22.016115    -19.557487    1.360434    19.512156    13.699373    2.810055    -21.592657    -5.946661    -5.157670    -22.296057    5.063404    -16.773239    -126.456123    -14.456539    -2.397092    -34.772636    -5.748728    -2.713837    -7.513105    32.895145    -27.289108    46.618824    11.147872    -31.946541    110.371048    29.328552    -36.691349    38.296005    38.904987    -23.299055    34.066830    -37.628250    47.708698    11.472569    3.382282    -17.248619    44.279381    0.000000    0.000000    0.000000    -32.975891    -17.052399    -16.399181    3.478888    35.308182    -5.657901    20.756424    -9.553881    7.485477    0.000000    0.000000    0.000000    
29.291948    143.255920    52.170849    5.108129    2.466211    -65.084930    -0.164480    3.755329    -3.036609    -0.504411    -1.379948    -1.020891    22.711205    11.652286    22.011847    -19.574905    1.339093    19.500618    13.704768    2.804644    -21.612635    -5.961138    -5.118497    -22.270695    5.100548    -16.847689    -126.465843    -14.476527    -2.377365    -34.878357    -5.769452    -2.732133    -7.530461    32.888760    -27.269375    46.600311    11.138428    -31.964205    110.376205    29.343254    -36.692261    38.302212    38.904453    -23.303743    34.059181    -37.621387    47.712879    11.459710    3.363303    -17.269800    44.290203    0.000000    0.000000    0.000000    -32.974876    -17.045729    -16.403931    3.482810    35.310993    -5.682675    20.811653    -9.528617    7.481628    0.000000    0.000000    0.000000    
29.287647    143.252869    52.173172    5.111496    2.470332    -65.078590    -0.159232    3.744351    -3.042432    -0.518472    -1.368061    -1.022958    22.735693    11.642376    22.011694    -19.579803    1.332685    19.495508    13.736572    2.821054    -21.603586    -5.982646    -5.090612    -22.279207    5.132349    -16.918053    -126.465424    -14.497255    -2.380940    -34.879757    -5.742844    -2.739822    -7.523369    32.872353    -27.290728    46.584236    11.152623    -31.948650    110.376038    29.365927    -36.684589    38.313992    38.911213    -23.309851    34.050404    -37.636414    47.713566    11.474595    3.367748    -17.260685    44.279129    0.000000    0.000000    0.000000    -32.972473    -17.048838    -16.408648    3.467888    35.317257    -5.682765    20.824926    -9.525141    7.489364    0.000000    0.000000    0.000000    
29.281485    143.249344    52.178150    5.111957    2.472924    -65.073135    -0.163705    3.747818    -3.048644    -0.502624    -1.373477    -1.024895    22.726494    11.636159    22.007898    -19.573715    1.320374    19.489216    13.730332    2.822166    -21.595142    -5.999005    -5.050932    -22.284678    5.156559    -16.979324    -126.471207    -14.525831    -2.378352    -34.931759    -5.750622    -2.740769    -7.522748    32.874821    -27.307774    46.572811    11.162560    -31.922520    110.382233    29.361069    -36.673191    38.320045    38.911953    -23.317133    34.048164    -37.633301    47.731148    11.449259    3.375476    -17.276148    44.296623    0.000000    0.000000    0.000000    -32.978004    -17.045538    -16.388590    3.492270    35.322781    -5.713915    20.820175    -9.521805    7.502947    0.000000    0.000000    0.000000    
29.273499    143.246460    52.185970    5.112248    2.476047    -65.071167    -0.165739    3.737962    -3.047698    -0.502038    -1.362501    -1.024519    22.733696    11.642612    22.000616    -19.569344    1.284454    19.476980    13.750196    2.828233    -21.603432    -6.021546    -5.018701    -22.285425    5.175713    -17.049337    -126.474548    -14.544813    -2.399524    -34.982471    -5.732430    -2.753205    -7.522941    32.856869    -27.323071    46.554523    11.166862    -31.905533    110.378426    29.354626    -36.666496    38.307507    38.920353    -23.316292    34.049103    -37.657135    47.738834    11.462177    3.376384    -17.283321    44.294601    0.000000    0.000000    0.000000    -32.977032    -17.045139    -16.398096    3.485159    35.330845    -5.672412    20.836365    -9.536895    7.453168    0.000000    0.000000    0.000000    
